<?xml version="1.0" standalone="no"?><svg xmlns="http://www.w3.org/2000/svg" viewBox="0 0 1440 320"><path fill="#0099ff" fill-opacity="1" d="M0,32L24,48C48,64,96,96,144,106.7C192,117,240,107,288,101.3C336,96,384,96,432,133.3C480,171,528,245,576,282.7C624,320,672,320,720,309.3C768,299,816,277,864,229.3C912,181,960,107,1008,80C1056,53,1104,75,1152,85.3C1200,96,1248,96,1296,101.3C1344,107,1392,117,1416,122.7L1440,128L1440,0L1416,0C1392,0,1344,0,1296,0C1248,0,1200,0,1152,0C1104,0,1056,0,1008,0C960,0,912,0,864,0C816,0,768,0,720,0C672,0,624,0,576,0C528,0,480,0,432,0C384,0,336,0,288,0C240,0,192,0,144,0C96,0,48,0,24,0L0,0Z"></path></svg>